# xmcd CD database file
#
# Track frame offsets:
#	150
#	24400
#	46870
#	66203
#	78674
#	118160
#	139987
#	148414
#
# Disc length: 2088 seconds
#
# Revision: 1
# Processed by: cddbd v1.5.2PL0 Copyright (c) Steve Scherf et al.
# Submitted via: CDex 1.70beta2
#
DISCID=77082608
DTITLE=Jacques Loussier - Play Bach No.1
DYEAR=1962
DGENRE=Jazz
TTITLE0=Prelude 1
TTITLE1=Fugue 1
TTITLE2=Prelude 2
TTITLE3=Fugue 2
TTITLE4=Toccata
TTITLE5=Prelude 8
TTITLE6=Prelude 5
TTITLE7=Fugue 5
EXTD=YEAR: 1962
EXTT0=
EXTT1=
EXTT2=
EXTT3=
EXTT4=
EXTT5=
EXTT6=
EXTT7=
PLAYORDER=
